<svg id="body_1" width={80} height={80}>
    <g transform="matrix(0.31434184 0 0 0.31434184 -0 4.6365423)">
      <g>
        <g>
          <g>
            <g>
              <path d="M40.2 101.1C 39.8 101.1 39.7 100.9 39.9 100.6L39.9 100.6L42 97.9C 42.2 97.6 42.7 97.4 43.1 97.4L43.1 97.4L78.8 97.4C 79.200005 97.4 79.3 97.700005 79.100006 98L79.100006 98L77.40001 100.6C 77.20001 100.9 76.70001 101.2 76.40001 101.2L76.40001 101.2L40.2 101.1z" stroke="none" fill="#00ACD7" fillRule="nonzero" />
            </g>
          </g>
        </g>
        <g>
          <g>
            <g>
              <path d="M25.1 110.3C 24.7 110.3 24.6 110.100006 24.800001 109.8L24.800001 109.8L26.900002 107.100006C 27.100002 106.8 27.600002 106.600006 28.000002 106.600006L28.000002 106.600006L73.6 106.600006C 74 106.600006 74.2 106.90001 74.1 107.200005L74.1 107.200005L73.299995 109.600006C 73.2 110.00001 72.799995 110.200005 72.399994 110.200005L72.399994 110.200005L25.1 110.3z" stroke="none" fill="#00ACD7" fillRule="nonzero" />
            </g>
          </g>
        </g>
        <g>
          <g>
            <g>
              <path d="M49.3 119.5C 48.899998 119.5 48.8 119.2 49 118.9L49 118.9L50.4 116.4C 50.600002 116.1 51 115.8 51.4 115.8L51.4 115.8L71.4 115.8C 71.8 115.8 72 116.100006 72 116.5L72 116.5L71.8 118.9C 71.8 119.3 71.4 119.6 71.100006 119.6L71.100006 119.6L49.3 119.5z" stroke="none" fill="#00ACD7" fillRule="nonzero" />
            </g>
          </g>
        </g>
        <g>
          <g>
            <g>
              <g>
                <path d="M153.1 99.3C 146.8 100.9 142.5 102.100006 136.3 103.700005C 134.8 104.100006 134.7 104.200005 133.40001 102.700005C 131.90001 101.00001 130.8 99.9 128.70001 98.9C 122.40001 95.8 116.30001 96.700005 110.60001 100.4C 103.80001 104.8 100.30001 111.3 100.40002 119.4C 100.500015 127.4 106.000015 134 113.90002 135.1C 120.70002 136 126.40002 133.6 130.90002 128.5C 131.80002 127.4 132.60002 126.2 133.60002 124.8C 130.00002 124.8 125.50002 124.8 114.30002 124.8C 112.20002 124.8 111.70002 123.5 112.40002 121.8C 113.70002 118.700005 116.10001 113.5 117.500015 110.9C 117.80002 110.3 118.500015 109.3 120.000015 109.3C 125.10001 109.3 143.90001 109.3 156.40002 109.3C 156.20003 112 156.20003 114.700005 155.80002 117.4C 154.70001 124.6 152.00002 131.2 147.60002 137C 140.40002 146.5 131.00002 152.4 119.10002 154C 109.30002 155.3 100.20002 153.4 92.20002 147.4C 84.80002 141.79999 80.60002 134.4 79.50002 125.2C 78.20002 114.299995 81.400024 104.5 88.00002 95.899994C 95.10002 86.59999 104.50002 80.7 116.00002 78.59999C 125.400024 76.899994 134.40002 77.99999 142.50003 83.49999C 147.80003 86.99999 151.60004 91.799995 154.10004 97.59999C 154.7 98.5 154.3 99 153.1 99.3z" stroke="none" fill="#00ACD7" fillRule="nonzero" />
              </g>
              <g>
                <path d="M186.2 154.6C 177.09999 154.40001 168.8 151.8 161.8 145.8C 155.90001 140.7 152.2 134.2 151 126.5C 149.2 115.2 152.3 105.2 159.1 96.3C 166.40001 86.700005 175.20001 81.700005 187.1 79.600006C 197.3 77.8 206.90001 78.8 215.6 84.700005C 223.5 90.100006 228.40001 97.4 229.70001 107C 231.40001 120.5 227.50002 131.5 218.20001 140.9C 211.6 147.59999 203.50002 151.79999 194.20001 153.7C 191.5 154.2 188.8 154.3 186.2 154.6zM210 114.2C 209.9 112.899994 209.9 111.899994 209.7 110.899994C 207.9 100.99999 198.8 95.399994 189.3 97.59999C 180 99.69999 174 105.59999 171.8 114.99999C 170 122.799995 173.8 130.7 181 133.9C 186.5 136.29999 192 136 197.3 133.29999C 205.2 129.2 209.5 122.8 210 114.2z" stroke="none" fill="#00ACD7" fillRule="nonzero" />
              </g>
            </g>
          </g>
        </g>
      </g>
    </g>
  </svg>